<svg xmlns="http://www.w3.org/2000/svg" version="1.1" xmlns:xlink="http://www.w3.org/1999/xlink" xmlns:svgjs="http://svgjs.dev/svgjs" width="1000" height="623" viewBox="0 0 1000 623"><g transform="matrix(1,0,0,1,-0.6060606060606233,0.25222672064785456)"><svg viewBox="0 0 396 247" data-background-color="#ffffff" preserveAspectRatio="xMidYMid meet" height="623" width="1000" xmlns="http://www.w3.org/2000/svg" xmlns:xlink="http://www.w3.org/1999/xlink"><g id="tight-bounds" transform="matrix(1,0,0,1,0.2400000000000091,-0.09999999999999432)"><svg viewBox="0 0 395.52 247.2" height="247.2" width="395.52"><g><svg></svg></g><g><svg viewBox="0 0 395.52 247.2" height="247.2" width="395.52"><g mask="url(&quot;#4a747065-d04d-4ab2-96a7-ad5e55967097&quot;)"><g><path xmlns="http://www.w3.org/2000/svg" d="M119.063 240.629l-4.694-70.092h11.578c1.46 9.387 4.235 17.836 8.323 25.346 4.047 7.51 9.158 13.872 15.333 19.087 6.133 5.215 13.226 9.22 21.278 12.016 8.011 2.837 16.709 4.256 26.097 4.256v0c15.437 0 27.641-3.651 36.61-10.952 8.97-7.301 13.455-17.21 13.456-29.727v0c0-5.215-0.876-10.013-2.629-14.394-1.794-4.381-4.777-8.615-8.949-12.704-4.172-4.047-9.742-8.052-16.71-12.016-7.009-3.964-15.833-8.24-26.472-12.829v0c-12.934-5.632-23.781-11.056-32.543-16.272-8.762-5.215-15.75-10.639-20.965-16.271-5.215-5.632-8.908-11.64-11.077-18.024-2.211-6.342-3.317-13.58-3.317-21.716v0c0-9.596 1.731-18.462 5.195-26.597 3.421-8.136 8.261-15.166 14.519-21.09 6.258-5.966 13.664-10.576 22.216-13.831 8.553-3.213 17.94-4.819 28.162-4.819v0c9.179 0 17.732 1.46 25.659 4.381 7.927 2.921 15.958 7.614 24.094 14.081v0l8.136-14.081h7.197l3.442 62.269h-11.578c-5.007-17.106-12.245-29.831-21.716-38.175-9.513-8.344-20.944-12.516-34.295-12.517v0c-12.725 0-22.843 3.129-30.352 9.388-7.51 6.258-11.265 14.707-11.265 25.346v0c0 5.007 0.834 9.533 2.503 13.58 1.669 4.089 4.381 7.948 8.136 11.578 3.755 3.671 8.657 7.322 14.707 10.952 6.05 3.671 13.559 7.489 22.529 11.452v0c15.437 6.884 28.266 13.288 38.489 19.213 10.222 5.966 18.357 11.911 24.407 17.836 6.05 5.966 10.326 12.224 12.829 18.775 2.503 6.592 3.755 13.956 3.755 22.091v0c0 10.43-2.086 20.026-6.258 28.788-4.172 8.762-10.013 16.271-17.523 22.53-7.51 6.258-16.48 11.098-26.911 14.519-10.43 3.463-21.904 5.194-34.42 5.194v0c-11.891 0-22.571-1.669-32.042-5.007-9.513-3.338-19.171-8.97-28.976-16.897v0l-8.761 15.333z" fill="#000000" fill-rule="nonzero" stroke="none" stroke-width="1" stroke-linecap="butt" stroke-linejoin="miter" stroke-miterlimit="10" stroke-dasharray="" stroke-dashoffset="0" font-family="none" font-weight="none" font-size="none" text-anchor="none" style="mix-blend-mode: normal" data-fill-palette-color="tertiary"></path></g></g><g transform="matrix(1,0,0,1,0,75.21410296411857)"><svg viewBox="0 0 395.52 96.77179407176286" height="96.77179407176286" width="395.52"><g><svg viewBox="0 0 395.52 96.77179407176286" height="96.77179407176286" width="395.52"><g><svg viewBox="0 0 395.52000000000004 96.77179407176287" height="96.77179407176286" width="395.52"><g><svg viewBox="0 0 395.52000000000004 96.77179407176287" height="96.77179407176287" width="395.52000000000004"><g id="textblocktransform"><svg viewBox="0 0 395.52000000000004 96.77179407176287" height="96.77179407176287" width="395.52000000000004" id="textblock"><g><svg viewBox="0 0 395.52000000000004 96.77179407176287" height="96.77179407176287" width="395.52000000000004"><g transform="matrix(1,0,0,1,0,0)"><svg width="395.52000000000004" viewBox="-0.09999990463256836 -44.5 193.29000854492188 48.04999923706055" height="96.77179407176287" data-palette-color="#000000"><path d="M3.65-0.55L2.9-11.75 4.75-11.75Q5.1-9.5 6.08-7.7 7.05-5.9 8.53-4.65 10-3.4 11.93-2.73 13.85-2.05 16.1-2.05L16.1-2.05Q19.8-2.05 21.95-3.8 24.1-5.55 24.1-8.55L24.1-8.55Q24.1-9.8 23.68-10.85 23.25-11.9 22.25-12.88 21.25-13.85 19.58-14.8 17.9-15.75 15.35-16.85L15.35-16.85Q12.25-18.2 10.15-19.45 8.05-20.7 6.8-22.05 5.55-23.4 5.03-24.93 4.5-26.45 4.5-28.4L4.5-28.4Q4.5-30.7 5.33-32.65 6.15-34.6 7.65-36.02 9.15-37.45 11.2-38.23 13.25-39 15.7-39L15.7-39Q17.9-39 19.8-38.3 21.7-37.6 23.65-36.05L23.65-36.05 24.95-38.3 26.1-38.3 26.65-28.35 24.8-28.35Q23.6-32.45 21.33-34.45 19.05-36.45 15.85-36.45L15.85-36.45Q12.8-36.45 11-34.95 9.2-33.45 9.2-30.9L9.2-30.9Q9.2-29.7 9.6-28.73 10-27.75 10.9-26.88 11.8-26 13.25-25.13 14.7-24.25 16.85-23.3L16.85-23.3Q20.55-21.65 23-20.23 25.45-18.8 26.9-17.38 28.35-15.95 28.95-14.38 29.55-12.8 29.55-10.85L29.55-10.85Q29.55-8.35 28.55-6.25 27.55-4.15 25.75-2.65 23.95-1.15 21.45-0.33 18.95 0.5 15.95 0.5L15.95 0.5Q13.1 0.5 10.83-0.3 8.55-1.1 6.2-3L6.2-3 4.8-0.55 3.65-0.55ZM42.65-14.35L42.65-7.95Q42.65-5.9 42.75-4.7 42.85-3.5 43.27-2.88 43.7-2.25 44.5-2.05 45.3-1.85 46.75-1.75L46.75-1.75 46.75 0 33.45 0 33.45-1.75Q34.9-1.85 35.75-2.05 36.6-2.25 37.05-2.85 37.5-3.45 37.62-4.58 37.75-5.7 37.75-7.6L37.75-7.6 37.75-28.55Q37.75-31.5 37.67-33.25 37.6-35 37.4-35.9L37.4-35.9Q37.3-36.5 37.07-36.88 36.85-37.25 36.4-37.48 35.95-37.7 35.2-37.8 34.45-37.9 33.35-37.9L33.35-37.9 33.35-39.6 42.55-41.5 42.55-22.45 42.75-22.45Q43.5-23.45 44.62-24.28 45.75-25.1 47.05-25.7 48.35-26.3 49.77-26.65 51.2-27 52.55-27L52.55-27Q54.85-27 56.77-26.2 58.7-25.4 59.75-24.05L59.75-24.05Q60.6-22.9 61-21.03 61.4-19.15 61.4-15.95L61.4-15.95 61.4-7.95Q61.4-5.9 61.5-4.73 61.6-3.55 62.02-2.9 62.45-2.25 63.25-2.05 64.05-1.85 65.5-1.75L65.5-1.75 65.5 0 52.25 0 52.25-1.75Q53.65-1.8 54.5-2.02 55.35-2.25 55.77-2.85 56.2-3.45 56.32-4.58 56.45-5.7 56.45-7.6L56.45-7.6 56.45-13.9Q56.45-19.5 55.15-21.88 53.85-24.25 50.8-24.25L50.8-24.25Q48.45-24.25 46.52-23.05 44.6-21.85 43.5-19.75L43.5-19.75Q43.25-19.2 43.07-18.73 42.9-18.25 42.8-17.65 42.7-17.05 42.67-16.28 42.65-15.5 42.65-14.35L42.65-14.35ZM89.8-13.6L89.8-18.5Q89.8-20.55 89.7-21.73 89.6-22.9 89.17-23.53 88.75-24.15 87.92-24.38 87.1-24.6 85.65-24.75L85.65-24.75 85.65-26.5 94.7-26.5 94.7-11.15Q94.7-8.3 94.77-6.5 94.85-4.7 95-3.8L95-3.8Q95.1-3.15 95.32-2.78 95.55-2.4 96-2.18 96.45-1.95 97.17-1.88 97.9-1.8 99.05-1.8L99.05-1.8 99.05-0.05 90.8 0.55 90.25-5.45 90.05-5.45Q88.15-2.35 85.67-0.93 83.2 0.5 80.5 0.5L80.5 0.5Q78.4 0.5 76.42-0.3 74.45-1.1 73.45-2.45L73.45-2.45Q72.6-3.55 72.22-5.5 71.85-7.45 71.85-10.55L71.85-10.55 71.85-18.5Q71.85-20.55 71.75-21.73 71.65-22.9 71.22-23.53 70.8-24.15 69.97-24.38 69.15-24.6 67.7-24.75L67.7-24.75 67.7-26.5 76.75-26.5 76.75-12.85Q76.75-7.4 78.02-4.95 79.3-2.5 82.1-2.5L82.1-2.5Q86.5-2.5 88.95-8.25L88.95-8.25Q89.2-8.85 89.35-9.35 89.5-9.85 89.6-10.45 89.7-11.05 89.75-11.8 89.8-12.55 89.8-13.6L89.8-13.6ZM105.14-23.35L102.14-23.35 102.14-25.2Q104.79-26.75 106.29-28.3 107.79-29.85 108.59-32L108.59-32 110.04-32 110.04-25.7 116.74-25.7 116.74-23.35 110.04-23.35 110.04-8.15Q110.04-6.4 110.22-5.2 110.39-4 110.79-3.28 111.19-2.55 111.84-2.25 112.49-1.95 113.49-1.95L113.49-1.95Q114.74-1.95 115.62-2.48 116.49-3 117.34-4.25L117.34-4.25 118.59-3.3Q117.89-1.45 116.17-0.48 114.44 0.5 111.89 0.5L111.89 0.5Q108.59 0.5 106.87-1.07 105.14-2.65 105.14-5.6L105.14-5.6 105.14-23.35ZM124.04-23.35L121.04-23.35 121.04-25.2Q123.69-26.75 125.19-28.3 126.69-29.85 127.49-32L127.49-32 128.94-32 128.94-25.7 135.64-25.7 135.64-23.35 128.94-23.35 128.94-8.15Q128.94-6.4 129.12-5.2 129.29-4 129.69-3.28 130.09-2.55 130.74-2.25 131.39-1.95 132.39-1.95L132.39-1.95Q133.64-1.95 134.52-2.48 135.39-3 136.24-4.25L136.24-4.25 137.49-3.3Q136.79-1.45 135.07-0.48 133.34 0.5 130.79 0.5L130.79 0.5Q127.49 0.5 125.77-1.07 124.04-2.65 124.04-5.6L124.04-5.6 124.04-23.35ZM162.49-6.05L164.04-4.65Q159.79 0.5 153.49 0.5L153.49 0.5Q150.54 0.5 148.14-0.48 145.74-1.45 144.01-3.23 142.29-5 141.34-7.48 140.39-9.95 140.39-12.95L140.39-12.95Q140.39-16 141.39-18.6 142.39-21.2 144.21-23.05 146.04-24.9 148.56-25.95 151.09-27 154.09-27L154.09-27Q158.94-27 161.59-24.38 164.24-21.75 164.24-16.85L164.24-16.85Q164.24-16.15 163.96-16 163.69-15.85 162.69-15.85L162.69-15.85 146.24-15.85Q146.14-15.45 146.09-14.88 146.04-14.3 146.04-13.6L146.04-13.6Q146.04-11 146.66-8.88 147.29-6.75 148.46-5.25 149.64-3.75 151.26-2.93 152.89-2.1 154.89-2.1L154.89-2.1Q156.99-2.1 158.79-3.03 160.59-3.95 162.49-6.05L162.49-6.05ZM146.59-18.15L155.79-18.15Q156.79-18.15 157.39-18.2 157.99-18.25 158.29-18.4 158.59-18.55 158.69-18.82 158.79-19.1 158.79-19.55L158.79-19.55Q158.79-21.85 157.31-23.23 155.84-24.6 153.29-24.6L153.29-24.6Q147.89-24.6 146.59-18.15L146.59-18.15ZM177.69-9.65L177.69-7.95Q177.69-5.9 177.79-4.7 177.89-3.5 178.31-2.88 178.74-2.25 179.54-2.05 180.34-1.85 181.79-1.75L181.79-1.75 181.79 0 168.49 0 168.49-1.75Q169.94-1.8 170.79-2.02 171.64-2.25 172.09-2.85 172.54-3.45 172.66-4.58 172.79-5.7 172.79-7.6L172.79-7.6 172.79-13.45Q172.79-16.85 172.71-18.75 172.64-20.65 172.21-21.55 171.79-22.45 170.89-22.63 169.99-22.8 168.39-22.8L168.39-22.8 168.39-24.55 177.14-26.45 177.84-20.25 178.04-20.25Q178.69-21.75 179.66-23 180.64-24.25 181.79-25.13 182.94-26 184.19-26.5 185.44-27 186.74-27L186.74-27Q188.34-27 189.26-26.23 190.19-25.45 190.19-24.15L190.19-24.15Q190.19-22.95 189.44-22.28 188.69-21.6 187.29-21.6L187.29-21.6Q186.49-21.6 185.94-21.8 185.39-22 184.96-22.23 184.54-22.45 184.16-22.65 183.79-22.85 183.34-22.85L183.34-22.85Q181.99-22.85 180.64-21.13 179.29-19.4 178.54-16.75L178.54-16.75Q178.14-15.3 177.91-13.48 177.69-11.65 177.69-9.65L177.69-9.65Z" opacity="1" transform="matrix(1,0,0,1,0,0)" fill="#000000" class="wordmark-text-0" data-fill-palette-color="primary" id="text-0"></path></svg></g></svg></g></svg></g></svg></g></svg></g></svg></g></svg></g></svg></g><defs><mask id="4a747065-d04d-4ab2-96a7-ad5e55967097"><rect width="395.52" height="247.2" fill="white"></rect><g transform="matrix(1,0,0,1,0,75.21410296411857)" id="clone"><svg viewBox="0 0 395.52 96.77179407176286" height="96.77179407176286" width="395.52"><g><svg viewBox="0 0 395.52 96.77179407176286" height="96.77179407176286" width="395.52"><g><svg viewBox="0 0 395.52000000000004 96.77179407176287" height="96.77179407176286" width="395.52"><g><svg viewBox="0 0 395.52000000000004 96.77179407176287" height="96.77179407176287" width="395.52000000000004"><g id="SvgjsG1086"><svg viewBox="0 0 395.52000000000004 96.77179407176287" height="96.77179407176287" width="395.52000000000004" id="SvgjsSvg1085"><g><svg viewBox="0 0 395.52000000000004 96.77179407176287" height="96.77179407176287" width="395.52000000000004"><g transform="matrix(1,0,0,1,0,0)"><svg width="395.52000000000004" viewBox="-0.09999990463256836 -44.5 193.29000854492188 48.04999923706055" height="96.77179407176287" data-palette-color="#000000"><path d="M3.65-0.55L2.9-11.75 4.75-11.75Q5.1-9.5 6.08-7.7 7.05-5.9 8.53-4.65 10-3.4 11.93-2.73 13.85-2.05 16.1-2.05L16.1-2.05Q19.8-2.05 21.95-3.8 24.1-5.55 24.1-8.55L24.1-8.55Q24.1-9.8 23.68-10.85 23.25-11.9 22.25-12.88 21.25-13.85 19.58-14.8 17.9-15.75 15.35-16.85L15.35-16.85Q12.25-18.2 10.15-19.45 8.05-20.7 6.8-22.05 5.55-23.4 5.03-24.93 4.5-26.45 4.5-28.4L4.5-28.4Q4.5-30.7 5.33-32.65 6.15-34.6 7.65-36.02 9.15-37.45 11.2-38.23 13.25-39 15.7-39L15.7-39Q17.9-39 19.8-38.3 21.7-37.6 23.65-36.05L23.65-36.05 24.95-38.3 26.1-38.3 26.65-28.35 24.8-28.35Q23.6-32.45 21.33-34.45 19.05-36.45 15.85-36.45L15.85-36.45Q12.8-36.45 11-34.95 9.2-33.45 9.2-30.9L9.2-30.9Q9.2-29.7 9.6-28.73 10-27.75 10.9-26.88 11.8-26 13.25-25.13 14.7-24.25 16.85-23.3L16.85-23.3Q20.55-21.65 23-20.23 25.45-18.8 26.9-17.38 28.35-15.95 28.95-14.38 29.55-12.8 29.55-10.85L29.55-10.85Q29.55-8.35 28.55-6.25 27.55-4.15 25.75-2.65 23.95-1.15 21.45-0.33 18.95 0.5 15.95 0.5L15.95 0.5Q13.1 0.5 10.83-0.3 8.55-1.1 6.2-3L6.2-3 4.8-0.55 3.65-0.55ZM42.65-14.35L42.65-7.95Q42.65-5.9 42.75-4.7 42.85-3.5 43.27-2.88 43.7-2.25 44.5-2.05 45.3-1.85 46.75-1.75L46.75-1.75 46.75 0 33.45 0 33.45-1.75Q34.9-1.85 35.75-2.05 36.6-2.25 37.05-2.85 37.5-3.45 37.62-4.58 37.75-5.7 37.75-7.6L37.75-7.6 37.75-28.55Q37.75-31.5 37.67-33.25 37.6-35 37.4-35.9L37.4-35.9Q37.3-36.5 37.07-36.88 36.85-37.25 36.4-37.48 35.95-37.7 35.2-37.8 34.45-37.9 33.35-37.9L33.35-37.9 33.35-39.6 42.55-41.5 42.55-22.45 42.75-22.45Q43.5-23.45 44.62-24.28 45.75-25.1 47.05-25.7 48.35-26.3 49.77-26.65 51.2-27 52.55-27L52.55-27Q54.85-27 56.77-26.2 58.7-25.4 59.75-24.05L59.75-24.05Q60.6-22.9 61-21.03 61.4-19.15 61.4-15.95L61.4-15.95 61.4-7.95Q61.4-5.9 61.5-4.73 61.6-3.55 62.02-2.9 62.45-2.25 63.25-2.05 64.05-1.85 65.5-1.75L65.5-1.75 65.5 0 52.25 0 52.25-1.75Q53.65-1.8 54.5-2.02 55.35-2.25 55.77-2.85 56.2-3.45 56.32-4.58 56.45-5.7 56.45-7.6L56.45-7.6 56.45-13.9Q56.45-19.5 55.15-21.88 53.85-24.25 50.8-24.25L50.8-24.25Q48.45-24.25 46.52-23.05 44.6-21.85 43.5-19.75L43.5-19.75Q43.25-19.2 43.07-18.73 42.9-18.25 42.8-17.65 42.7-17.05 42.67-16.28 42.65-15.5 42.65-14.35L42.65-14.35ZM89.8-13.6L89.8-18.5Q89.8-20.55 89.7-21.73 89.6-22.9 89.17-23.53 88.75-24.15 87.92-24.38 87.1-24.6 85.65-24.75L85.65-24.75 85.65-26.5 94.7-26.5 94.7-11.15Q94.7-8.3 94.77-6.5 94.85-4.7 95-3.8L95-3.8Q95.1-3.15 95.32-2.78 95.55-2.4 96-2.18 96.45-1.95 97.17-1.88 97.9-1.8 99.05-1.8L99.05-1.8 99.05-0.05 90.8 0.55 90.25-5.45 90.05-5.45Q88.15-2.35 85.67-0.93 83.2 0.5 80.5 0.5L80.5 0.5Q78.4 0.5 76.42-0.3 74.45-1.1 73.45-2.45L73.45-2.45Q72.6-3.55 72.22-5.5 71.85-7.45 71.85-10.55L71.85-10.55 71.85-18.5Q71.85-20.55 71.75-21.73 71.65-22.9 71.22-23.53 70.8-24.15 69.97-24.38 69.15-24.6 67.7-24.75L67.7-24.75 67.7-26.5 76.75-26.5 76.75-12.85Q76.75-7.4 78.02-4.95 79.3-2.5 82.1-2.5L82.1-2.5Q86.5-2.5 88.95-8.25L88.95-8.25Q89.2-8.85 89.35-9.35 89.5-9.85 89.6-10.45 89.7-11.05 89.75-11.8 89.8-12.55 89.8-13.6L89.8-13.6ZM105.14-23.35L102.14-23.35 102.14-25.2Q104.79-26.75 106.29-28.3 107.79-29.85 108.59-32L108.59-32 110.04-32 110.04-25.7 116.74-25.7 116.74-23.35 110.04-23.35 110.04-8.15Q110.04-6.4 110.22-5.2 110.39-4 110.79-3.28 111.19-2.55 111.84-2.25 112.49-1.95 113.49-1.95L113.49-1.95Q114.74-1.95 115.62-2.48 116.49-3 117.34-4.25L117.34-4.25 118.59-3.3Q117.89-1.45 116.17-0.48 114.44 0.5 111.89 0.5L111.89 0.5Q108.59 0.5 106.87-1.07 105.14-2.65 105.14-5.6L105.14-5.6 105.14-23.35ZM124.04-23.35L121.04-23.35 121.04-25.2Q123.69-26.75 125.19-28.3 126.69-29.85 127.49-32L127.49-32 128.94-32 128.94-25.7 135.64-25.7 135.64-23.35 128.94-23.35 128.94-8.15Q128.94-6.4 129.12-5.2 129.29-4 129.69-3.28 130.09-2.55 130.74-2.25 131.39-1.95 132.39-1.95L132.39-1.95Q133.64-1.95 134.52-2.48 135.39-3 136.24-4.25L136.24-4.25 137.49-3.3Q136.79-1.45 135.07-0.48 133.34 0.5 130.79 0.5L130.79 0.5Q127.49 0.5 125.77-1.07 124.04-2.65 124.04-5.6L124.04-5.6 124.04-23.35ZM162.49-6.05L164.04-4.65Q159.79 0.5 153.49 0.5L153.49 0.5Q150.54 0.5 148.14-0.48 145.74-1.45 144.01-3.23 142.29-5 141.34-7.48 140.39-9.95 140.39-12.95L140.39-12.95Q140.39-16 141.39-18.6 142.39-21.2 144.21-23.05 146.04-24.9 148.56-25.95 151.09-27 154.09-27L154.09-27Q158.94-27 161.59-24.38 164.24-21.75 164.24-16.85L164.24-16.85Q164.24-16.15 163.96-16 163.69-15.85 162.69-15.85L162.69-15.85 146.24-15.85Q146.14-15.45 146.09-14.88 146.04-14.3 146.04-13.6L146.04-13.6Q146.04-11 146.66-8.88 147.29-6.75 148.46-5.25 149.64-3.75 151.26-2.93 152.89-2.1 154.89-2.1L154.89-2.1Q156.99-2.1 158.79-3.03 160.59-3.95 162.49-6.05L162.49-6.05ZM146.59-18.15L155.79-18.15Q156.79-18.15 157.39-18.2 157.99-18.25 158.29-18.4 158.59-18.55 158.69-18.82 158.79-19.1 158.79-19.55L158.79-19.55Q158.79-21.85 157.31-23.23 155.84-24.6 153.29-24.6L153.29-24.6Q147.89-24.6 146.59-18.15L146.59-18.15ZM177.69-9.65L177.69-7.95Q177.69-5.9 177.79-4.7 177.89-3.5 178.31-2.88 178.74-2.25 179.54-2.05 180.34-1.85 181.79-1.75L181.79-1.75 181.79 0 168.49 0 168.49-1.75Q169.94-1.8 170.79-2.02 171.64-2.25 172.09-2.85 172.54-3.45 172.66-4.58 172.79-5.7 172.79-7.6L172.79-7.6 172.79-13.45Q172.79-16.85 172.71-18.75 172.64-20.65 172.21-21.55 171.79-22.45 170.89-22.63 169.99-22.8 168.39-22.8L168.39-22.8 168.39-24.55 177.14-26.45 177.84-20.25 178.04-20.25Q178.69-21.75 179.66-23 180.64-24.25 181.79-25.13 182.94-26 184.19-26.5 185.44-27 186.74-27L186.74-27Q188.34-27 189.26-26.23 190.19-25.45 190.19-24.15L190.19-24.15Q190.19-22.95 189.44-22.28 188.69-21.6 187.29-21.6L187.29-21.6Q186.49-21.6 185.94-21.8 185.39-22 184.96-22.23 184.54-22.45 184.16-22.65 183.79-22.85 183.34-22.85L183.34-22.85Q181.99-22.85 180.64-21.13 179.29-19.4 178.54-16.75L178.54-16.75Q178.14-15.3 177.91-13.48 177.69-11.65 177.69-9.65L177.69-9.65Z" opacity="1" transform="matrix(1,0,0,1,0,0)" fill="#000000" class="wordmark-text-0" data-fill-palette-color="primary" id="SvgjsPath1084" stroke-width="5" stroke="black" stroke-linejoin="round"></path></svg></g></svg></g></svg></g></svg></g></svg></g></svg></g></svg></g></mask></defs></svg><rect width="395.52" height="247.2" fill="none" stroke="none" visibility="hidden"></rect></g></svg></g></svg>